# xmcd
#
# Track frame offsets:
#	150
#	18900
#	34040
#	49791
#	64334
#	77921
#	95661
#	110643
#	127093
#	150777
#	165242
#
# Disc length: 2363 seconds
#
# Revision: 1
# Processed by: cddbd v1.5.1PL2 Copyright (c) Steve Scherf et al.
# Submitted via: audiograbber 1.83.01
#
DISCID=8409390b
DTITLE=Luiz De Pariz - Dueto Com Ele Mesmo
DYEAR=2005
DGENRE=Gaúcho
TTITLE0=Fandango da Portelada
TTITLE1=Loirinha Linda
TTITLE2=Se Você Chorou
TTITLE3=Quatro Querências
TTITLE4=Pertinho do Meu Amor
TTITLE5=Comentários na Serra
TTITLE6=Amigo Mulherengo
TTITLE7=No Tranco do Chamamé
TTITLE8=Mágoas de um Pai
TTITLE9=Dor da Paixão
TTITLE10=Cantando Para os Amigos
EXTD=
EXTT0=
EXTT1=
EXTT2=
EXTT3=
EXTT4=
EXTT5=
EXTT6=
EXTT7=
EXTT8=
EXTT9=
EXTT10=
PLAYORDER=
